<svg aria-hidden="true" style="position: absolute; width: 0; height: 0; overflow: hidden;" version="1.1" xmlns="http://www.w3.org/2000/svg" xmlns:xlink="http://www.w3.org/1999/xlink">
<defs>
<symbol id="antenna" viewBox="0 0 32 32">
<path fill="#212121" style="fill: var(--color1, #212121)" d="M30.775 22.098l-8.443-8.503 0.937-4.617c0.242 0.091 0.498 0.142 0.759 0.146h0.005c0.006 0 0.014 0 0.022 0 1.192 0 2.158-0.966 2.158-2.158s-0.966-2.158-2.158-2.158c-1.192 0-2.158 0.966-2.158 2.158 0 0.259 0.046 0.507 0.129 0.737l-0.005-0.015-4.955 0.603-8.091-8.133c-0.097-0.098-0.231-0.159-0.379-0.16h-0c-0.137 0-0.274 0.055-0.37 0.155l-1.513 1.504c-0.21 0.21-0.21 0.549 0 0.754l0.814 0.823c-1.143 2.062-1.816 4.522-1.816 7.14 0 4.106 1.656 7.824 4.336 10.525l-0.001-0.001c0.046 0.046 0.091 0.073 0.146 0.101-0.032 0.183-0.050 0.366-0.050 0.549v6.185h-6.4c0 0 0 0 0 0-1.473 0-2.667 1.193-2.67 2.665v1.065c0 0.297 0.238 0.535 0.535 0.535h24.535c0.293 0 0.53-0.238 0.53-0.535v-1.065c-0.003-1.471-1.194-2.663-2.665-2.665h-6.4v-2.743c0.915 0.2 1.966 0.315 3.043 0.315 2.581 0 5.008-0.659 7.123-1.817l-0.077 0.039 0.818 0.823c0.096 0.101 0.233 0.16 0.375 0.16 0.137 0 0.274-0.059 0.375-0.155l1.509-1.509c0.21-0.206 0.21-0.544 0-0.75zM23.278 6.235c0.193-0.192 0.458-0.311 0.752-0.311 0.588 0 1.065 0.477 1.065 1.065s-0.476 1.064-1.063 1.065h-0c-0.001 0-0.001 0-0.002 0-0.588 0-1.065-0.477-1.065-1.065 0-0.297 0.122-0.566 0.318-0.759l0-0zM22.025 9.737l-0.599 2.944-1.175-1.179 1.774-1.765zM21.417 8.837l-1.92 1.906-1.486-1.49 3.406-0.416zM24.005 28.8c0.884 0 1.6 0.716 1.6 1.6v0 0.535h-23.465v-0.535c0-0.884 0.716-1.6 1.6-1.6v0h20.261zM16.539 26.665v1.070h-5.339v-1.070h5.335zM11.2 25.6v-4.055c0-1.294 1.198-2.345 2.665-2.345 1.472 0 2.67 1.051 2.67 2.345v4.055h-5.335zM17.6 23.904v-2.359c0-1.879-1.673-3.41-3.735-3.41-0.018-0-0.040-0-0.062-0-1.351 0-2.537 0.705-3.211 1.768l-0.009 0.016c-2.359-2.481-3.809-5.845-3.809-9.548 0-2.314 0.567-4.496 1.569-6.415l-0.036 0.077 18.606 18.711c-1.822 0.946-3.978 1.501-6.264 1.501-1.080 0-2.132-0.124-3.141-0.358l0.093 0.018zM28.891 23.218l-0.754-0.754-20.302-20.425 0.754-0.75 21.061 21.179-0.759 0.75z"></path>
<path fill="#2196f3" style="fill: var(--color2, #2196f3)" d="M13.874 20.265c-0.001 0-0.003 0-0.005 0-0.884 0-1.6 0.716-1.6 1.6 0 0.882 0.714 1.597 1.595 1.6h0.005c0.001 0 0.001 0 0.002 0 0.884 0 1.6-0.716 1.6-1.6s-0.715-1.599-1.598-1.6h-0zM14.249 22.245c-0.097 0.096-0.23 0.155-0.377 0.155-0.295 0-0.535-0.239-0.535-0.535s0.238-0.533 0.532-0.535h0c0.294 0.001 0.533 0.24 0.533 0.535 0 0.148-0.060 0.283-0.158 0.379l-0 0z"></path>
</symbol>
<symbol id="astronaut" viewBox="0 0 32 32">
<path fill="#2196f3" style="fill: var(--color2, #2196f3)" d="M31.973 4.526c-0.059-0.192-0.229-0.334-0.43-0.366l-1.911-0.274-0.855-1.737c-0.178-0.361-0.777-0.361-0.955 0l-0.85 1.737-1.911 0.274c-0.262 0.038-0.46 0.261-0.46 0.53 0 0.151 0.063 0.287 0.163 0.385l0 0 1.385 1.344-0.325 1.902c-0.005 0.026-0.007 0.056-0.007 0.087 0 0.295 0.239 0.535 0.535 0.535 0.089 0 0.174-0.022 0.248-0.061l-0.003 0.001 1.71-0.896 1.705 0.896c0.072 0.039 0.158 0.062 0.25 0.062 0.295 0 0.535-0.239 0.535-0.535 0-0.032-0.003-0.063-0.008-0.093l0 0.003-0.329-1.902 1.385-1.349c0.146-0.137 0.197-0.352 0.137-0.549zM29.513 5.851c-0.128 0.123-0.183 0.297-0.155 0.471l0.192 1.115-1.001-0.526c-0.072-0.039-0.158-0.062-0.249-0.062s-0.177 0.023-0.252 0.064l0.003-0.001-1.001 0.526 0.192-1.115c0.032-0.174-0.027-0.347-0.151-0.471l-0.814-0.791 1.12-0.16c0.174-0.027 0.325-0.137 0.402-0.293l0.503-1.015 0.498 1.015c0.078 0.155 0.229 0.265 0.402 0.293l1.12 0.16-0.809 0.791zM26.135 20.526h-1.070v1.065h1.070v-1.070zM26.135 22.656h-1.070v1.065h1.070v-1.065zM27.2 21.591h-1.065v1.065h1.065v-1.065zM25.065 21.591h-1.065v1.065h1.065v-1.065zM22.4 26.391h-1.065v1.065h1.065v-1.065zM22.4 28.526h-1.065v1.065h1.065v-1.070zM23.465 27.456h-1.065v1.065h1.065v-1.065zM21.335 27.456h-1.070v1.065h1.070v-1.065zM16 24.256h-1.065v1.065h1.065v-1.065zM16 26.391h-1.065v1.065h1.065v-1.065zM17.065 25.326h-1.065v1.065h1.065v-1.070zM14.935 25.326h-1.070v1.065h1.070v-1.070zM5.865 6.126h-1.065v1.065h1.065v-1.070zM5.865 8.256h-1.065v1.065h1.065v-1.065zM6.935 7.191h-1.070v1.065h1.070v-1.065zM4.8 7.191h-1.065v1.065h1.065v-1.065z"></path>
<path fill="#212121" style="fill: var(--color1, #212121)" d="M24.713 14.158c-0.28-0.376-0.699-0.636-1.179-0.703l-0.009-0.001c-0.076-0.012-0.164-0.018-0.253-0.018-0.411 0-0.789 0.139-1.090 0.373l0.004-0.003-1.248 0.96-1.902 1.417-1.358-0.539c2.423-1.088 4.114-3.506 4.114-6.322 0-3.822-3.122-6.93-6.962-6.93s-6.958 3.109-6.958 6.93c0 1.39 0.411 2.674 1.12 3.762l-2.77-0.027-0.023 0.005c-0.055 0-0.105 0.014-0.155 0.032l-0.037 0.014-0.023 0.005-3.232 1.6-1.893 0.91c-0.506 0.32-0.837 0.877-0.837 1.511 0 0.985 0.798 1.783 1.783 1.783 0.303 0 0.588-0.075 0.838-0.209l-0.010 0.005 1.385-0.736 2.263-1.17 1.358-0.009-6.779 6.757c-0.306 0.299-0.496 0.716-0.496 1.177s0.19 0.878 0.495 1.177l0 0c0.302 0.302 0.719 0.488 1.179 0.488s0.878-0.187 1.179-0.488v0l1.307-1.312 1.742-1.298 0.901 0.896-1.76 1.755-1.339 1.33c-0.307 0.299-0.498 0.717-0.498 1.179s0.191 0.88 0.498 1.179l0 0c0.302 0.302 0.719 0.488 1.179 0.488s0.878-0.187 1.179-0.488v0l3.483-3.47 1.015-1.006h-0.005l0.018-0.018 5.166-5.659 3.474 0.498c0.019 0.003 0.041 0.004 0.063 0.004 0.071 0 0.139-0.015 0.201-0.042l-0.003 0.001 0.050-0.023c0.018-0.009 0.041-0.014 0.059-0.027l3.214-2.13 0.027-0.032 0.041-0.023 1.271-1.193c0.347-0.326 0.562-0.788 0.562-1.3 0-0.401-0.132-0.771-0.355-1.068l0.003 0.005zM2.13 17.769c-0.109 0.071-0.243 0.113-0.386 0.113-0.396 0-0.716-0.321-0.716-0.716 0-0.252 0.13-0.474 0.327-0.602l0.003-0.002 1.317-0.631 0.315 0.923 0.133 0.389-0.992 0.526zM5.627 15.941l-1.55 0.8-0.256-0.741-0.183-0.535 2.030-1.006-0.041 1.486zM20.727 9.326c0 0.919-0.219 1.783-0.599 2.56l-4.183-1.897c-0.042-0.576-0.341-1.074-0.78-1.386l-0.006-0.004 1.463-4.859c2.377 0.754 4.105 2.971 4.105 5.586zM8.937 9.326c0.011-3.243 2.643-5.868 5.888-5.868 0.266 0 0.528 0.018 0.784 0.052l-0.030-0.003-1.435 4.754-0.055-0.005c0 0 0 0-0 0-1.032 0-1.869 0.834-1.874 1.865v0.001c0.012 1.026 0.847 1.852 1.874 1.852 0.687 0 1.287-0.369 1.614-0.92l0.005-0.009 3.858 1.755c-1.085 1.458-2.804 2.393-4.741 2.393-3.245 0-5.878-2.624-5.893-5.866v-0.001zM14.894 10.126c0 0.446-0.361 0.807-0.807 0.807s-0.807-0.361-0.807-0.807v0c0-0.439 0.366-0.8 0.809-0.8s0.805 0.361 0.805 0.8zM2.469 25.147c-0.233 0.233-0.617 0.229-0.855 0-0.109-0.108-0.177-0.257-0.177-0.423s0.068-0.315 0.177-0.423l0.96-0.96 0.855 0.85-0.965 0.951zM5.682 28.878c-0.233 0.238-0.617 0.238-0.855 0-0.108-0.108-0.174-0.256-0.174-0.421s0.067-0.313 0.174-0.421v0l0.96-0.96 0.855 0.846-0.96 0.96zM9.166 25.413l-1.769 1.76-0.85-0.85 1.765-1.751c0.041-0.046 0.064-0.091 0.091-0.137l0.023-0.046c0.018-0.037 0.023-0.082 0.027-0.123 0-0.027 0.014-0.046 0.014-0.073 0-0.037-0.014-0.073-0.018-0.105l-0.018-0.096c-0.023-0.050-0.055-0.091-0.091-0.137l-0.027-0.041-1.609-1.6c-0.014-0.018-0.037-0.023-0.055-0.037-0.032-0.023-0.059-0.046-0.091-0.059-0.026-0.012-0.056-0.023-0.088-0.031l-0.003-0.001c-0.029-0.010-0.063-0.018-0.098-0.023l-0.003-0c-0.032 0-0.064 0-0.096 0.009-0.037 0-0.069 0.009-0.105 0.018-0.032 0.009-0.064 0.027-0.091 0.046-0.023 0.009-0.046 0.014-0.064 0.027l-1.774 1.326-0.901-0.901 2.4-2.386 4.361 4.293-0.928 0.914zM15.982 18.395h-0.046c-0.007-0-0.016-0.001-0.025-0.001-0.137 0-0.262 0.052-0.355 0.138l0-0-0.041 0.032-4.699 5.143-4.325-4.251 2.834-2.821c0.098-0.097 0.158-0.231 0.158-0.379 0-0.295-0.239-0.535-0.535-0.535-0.002 0-0.005 0-0.007 0h0l-2.217 0.014 0.027-1.609 3.104 0.027c1.263 1.296 3.026 2.099 4.977 2.099 0.455 0 0.899-0.044 1.33-0.127l-0.044 0.007c0.037 0.032 0.078 0.064 0.128 0.087l2.409 0.96 0.151 0.759 0.183 0.882-3.008-0.425zM20.023 18.574l-0.311-1.559 1.445-1.079 0.379 0.503 0.567 0.75-2.080 1.385zM23.781 15.739l-0.841 0.786-0.928-1.234 0.827-0.64c0.122-0.093 0.276-0.149 0.443-0.149 0.037 0 0.074 0.003 0.11 0.008l-0.004-0.001c0.352 0.050 0.62 0.349 0.62 0.711 0 0.206-0.087 0.392-0.226 0.523l-0 0z"></path>
<path fill="#212121" style="fill: var(--color1, #212121)" d="M13.6 18.546l-2.139-2.135c-0.097-0.096-0.23-0.156-0.377-0.156s-0.28 0.059-0.377 0.156l0-0-2.144 2.135c-0.096 0.097-0.156 0.23-0.156 0.377s0.059 0.28 0.156 0.377l-0-0 2.144 2.135c0.097 0.096 0.23 0.156 0.377 0.156s0.28-0.059 0.377-0.156l-0 0 2.139-2.135c0.096-0.097 0.156-0.23 0.156-0.377s-0.059-0.28-0.156-0.377l0 0zM11.086 20.302l-1.394-1.376 1.385-1.381 1.39 1.381-1.39 1.381zM17.166 5.074l-0.261 1.033c0.073 0.018 1.737 0.453 1.737 2.149h1.070c0-2.016-1.669-2.967-2.546-3.186zM19.712 9.326h-1.070v1.065h1.070v-1.070z"></path>
</symbol>
<symbol id="clock" viewBox="0 0 32 32">
<path fill="#212121" style="fill: var(--color1, #212121)" d="M31.296 15.301c-0.001-8.452-6.853-15.303-15.305-15.303s-15.305 6.852-15.305 15.305c0 6.79 4.422 12.548 10.543 14.55l0.108 0.031c0.057 0.017 0.123 0.027 0.191 0.027 0.125 0 0.242-0.034 0.343-0.093l-0.003 0.002c0.137-0.082 0.233-0.206 0.283-0.357l3.863-12.251c1.048-0.009 1.895-0.861 1.895-1.911 0-1.055-0.856-1.911-1.911-1.911-0.3 0-0.584 0.069-0.836 0.192l0.011-0.005-5.102-5.106c-0.112-0.098-0.259-0.158-0.421-0.158-0.353 0-0.64 0.287-0.64 0.64 0 0.16 0.059 0.307 0.156 0.419l-0.001-0.001 5.106 5.111c-0.121 0.241-0.192 0.526-0.192 0.826 0 0.601 0.283 1.136 0.723 1.479l0.004 0.003-3.685 11.671c-5.408-2.035-9.186-7.165-9.186-13.177 0-7.756 6.287-14.043 14.043-14.043s14.043 6.287 14.043 14.043c0 5.688-3.381 10.586-8.243 12.793l-0.088 0.036-0.398-1.874c-0.066-0.289-0.32-0.502-0.625-0.502-0.162 0-0.31 0.060-0.423 0.159l0.001-0.001-3.84 3.429c-0.127 0.117-0.207 0.285-0.207 0.471 0 0.282 0.182 0.521 0.435 0.607l0.005 0.001 4.901 1.563c0.057 0.019 0.123 0.029 0.192 0.029 0.353 0 0.64-0.287 0.64-0.64 0-0.046-0.005-0.091-0.014-0.134l0.001 0.004-0.393-1.838c5.529-2.374 9.33-7.772 9.33-14.057 0-0.011 0-0.022-0-0.034v0.002zM15.991 14.661c0.353 0 0.64 0.287 0.64 0.64s-0.287 0.64-0.64 0.64v0c-0.353 0-0.64-0.287-0.64-0.64s0.287-0.64 0.64-0.64v0zM18.094 29.527l2.185-1.947 0.599 2.839-2.789-0.891z"></path>
<path fill="#2196f3" style="fill: var(--color2, #2196f3)" d="M15.355 3.186v1.275c-0.001 0.016-0.002 0.035-0.002 0.054 0 0.353 0.287 0.64 0.64 0.64s0.64-0.287 0.64-0.64c0-0.019-0.001-0.038-0.002-0.056l0 0.002v-1.28c0-0.353-0.287-0.64-0.64-0.64s-0.64 0.287-0.64 0.64v0zM3.877 14.665c-0.329 0.029-0.586 0.303-0.586 0.638s0.257 0.609 0.584 0.638l0.002 0h1.275c0.353 0 0.64-0.287 0.64-0.64s-0.287-0.64-0.64-0.64h-1.28zM28.11 15.941c0.353 0 0.64-0.287 0.64-0.64s-0.287-0.64-0.64-0.64h-1.28c-0.353 0-0.64 0.287-0.64 0.64s0.287 0.64 0.64 0.64h1.28z"></path>
</symbol>
<symbol id="company1" viewBox="0 0 56 64">
<path  d="M8.17 0l9.532 9.028h-17.702v43.806h46.298v-16.749l9.532 9.014v-45.1h-47.66zM45.889 35.037l-27.084-25.614h27.084v25.6zM37.474 46.448h-30.148v-29.481h2.138v27.479h28.010v2.002zM14.448 58.689l-1.117 2.288-1.117-2.288h-0.912l1.634 3.064v1.77h0.831v-1.77l1.634-3.064h-0.953zM15.85 63.523l0.381-1.117h1.879l0.409 1.117h0.872l-1.838-4.834h-0.749l-1.838 4.834h0.885zM17.171 59.711l0.708 2.015h-1.403l0.694-2.015zM21.61 61.617c-0.111 0.168-0.177 0.374-0.177 0.595 0 0.001 0 0.003 0 0.004v-0c0 0.408 0.136 0.749 0.422 0.994 0.286 0.259 0.681 0.381 1.157 0.381s0.885-0.136 1.226-0.381l0.272 0.313h0.953l-0.722-0.831c0.272-0.381 0.409-0.871 0.409-1.471h-0.681c0 0.327-0.082 0.626-0.218 0.885l-0.926-1.089 0.327-0.259c0.232-0.163 0.409-0.327 0.504-0.504 0.094-0.155 0.149-0.342 0.149-0.542 0-0.307-0.13-0.584-0.339-0.778l-0.001-0.001c-0.216-0.195-0.504-0.314-0.819-0.314-0.014 0-0.027 0-0.041 0.001l0.002-0c-0.023-0.002-0.050-0.002-0.078-0.002-0.332 0-0.634 0.125-0.863 0.33l0.001-0.001c-0.212 0.214-0.342 0.508-0.342 0.833 0 0.023 0.001 0.046 0.002 0.069l-0-0.003c0 0.163 0.041 0.327 0.109 0.49s0.204 0.368 0.395 0.599c-0.282 0.187-0.521 0.413-0.716 0.673l-0.005 0.007zM23.789 62.679c-0.207 0.168-0.472 0.27-0.762 0.272h-0c-0.012 0.001-0.026 0.001-0.041 0.001-0.205 0-0.391-0.078-0.532-0.206l0.001 0.001c-0.135-0.131-0.218-0.315-0.218-0.517 0-0.010 0-0.019 0.001-0.029l-0 0.001c0-0.272 0.136-0.49 0.409-0.694l0.095-0.082 1.049 1.253zM22.931 60.528c-0.232-0.272-0.34-0.504-0.34-0.694 0-0.163 0.041-0.3 0.136-0.408 0.087-0.093 0.21-0.15 0.347-0.15 0.007 0 0.014 0 0.021 0.001l-0.001-0c0.15 0 0.272 0.041 0.368 0.136 0.095 0.082 0.136 0.191 0.136 0.313 0 0.191-0.068 0.354-0.204 0.477l-0.095 0.082-0.368 0.245zM30.802 63.169c0.34-0.3 0.531-0.694 0.572-1.226h-0.831c-0.041 0.354-0.15 0.599-0.313 0.749-0.177 0.15-0.409 0.218-0.749 0.218-0.012 0.001-0.027 0.001-0.041 0.001-0.321 0-0.604-0.161-0.774-0.406l-0.002-0.003c-0.191-0.272-0.286-0.681-0.286-1.198v-0.422c0-0.517 0.095-0.912 0.3-1.171 0.191-0.272 0.477-0.408 0.844-0.408 0.313 0 0.545 0.082 0.708 0.231s0.272 0.408 0.313 0.749h0.831c-0.025-0.483-0.234-0.913-0.558-1.225l-0.001-0.001c-0.322-0.272-0.742-0.438-1.201-0.438-0.033 0-0.065 0.001-0.097 0.002l0.005-0c-0.409 0-0.749 0.095-1.049 0.272-0.3 0.204-0.545 0.463-0.694 0.817-0.163 0.34-0.245 0.749-0.245 1.198v0.463c0 0.436 0.082 0.831 0.245 1.171s0.381 0.599 0.681 0.776c0.3 0.191 0.64 0.272 1.021 0.272 0.545 0 0.994-0.136 1.321-0.422zM35.745 62.489c0.163-0.368 0.245-0.776 0.245-1.253v-0.272c0-0.477-0.082-0.885-0.245-1.226-0.292-0.663-0.943-1.118-1.7-1.118-0.025 0-0.049 0.001-0.074 0.001l0.004-0c-0.381 0-0.735 0.095-1.035 0.286-0.313 0.191-0.545 0.477-0.708 0.831-0.163 0.368-0.259 0.776-0.259 1.253v0.272c0 0.463 0.095 0.871 0.259 1.226s0.408 0.626 0.708 0.817c0.313 0.191 0.667 0.286 1.048 0.286 0.408 0 0.749-0.095 1.062-0.272 0.3-0.204 0.545-0.477 0.694-0.831zM34.846 59.752c0.204 0.272 0.313 0.694 0.313 1.226v0.259c0 0.545-0.109 0.953-0.313 1.239-0.179 0.257-0.474 0.423-0.807 0.423-0.018 0-0.036-0.001-0.053-0.001l0.002 0c-0.011 0-0.024 0.001-0.037 0.001-0.337 0-0.636-0.166-0.819-0.42l-0.002-0.003c-0.199-0.316-0.317-0.7-0.317-1.112 0-0.045 0.001-0.089 0.004-0.133l-0 0.006v-0.272c0-0.531 0.109-0.926 0.313-1.226 0.183-0.25 0.475-0.41 0.804-0.41 0.019 0 0.038 0.001 0.056 0.002l-0.003-0c0.368 0 0.654 0.136 0.858 0.408z"></path>
</symbol>
<symbol id="company2" viewBox="0 0 49 64">
<path d="M21.058 3.606h-0.16l-0.775-0.025h-0.566c-0.036-0-0.078-0-0.12-0-0.52 0-1.038 0.014-1.551 0.040l0.072-0.003c-4.48 0.246-8.862 1.378-12.935 3.298l-0.529 0.258v27.249l1.243-0.418c3.989-1.437 8.593-2.293 13.389-2.351l0.026-0v3.582l-1.305 0.037h-0.098c-6.206 0.345-11.942 2.059-17.006 4.842l0.206-0.104v-34.966c2.76-1.633 5.954-2.963 9.335-3.822l0.253-0.054c2.703-0.729 5.809-1.154 9.012-1.169l0.009-0h0.529c2.246 0.007 4.421 0.299 6.494 0.84l-0.181-0.040v3.532c-1.254-0.31-2.742-0.546-4.264-0.659l-0.092-0.006h-0.086c-0.308-0.025-0.615-0.062-0.898-0.062zM27.262 7.212c0.695 0.045 1.508 0.070 2.326 0.070 3.402 0 6.701-0.439 9.845-1.262l-0.27 0.060c3.469-0.883 6.508-2.101 9.334-3.659l-0.202 0.102v34.326c-2.76 1.64-5.953 2.978-9.333 3.846l-0.254 0.055c-2.954 0.751-5.982 1.145-9.022 1.157-0.062 0.001-0.136 0.001-0.209 0.001-2.36 0-4.651-0.297-6.837-0.854l0.191 0.041v-34.548c1.277 0.312 2.791 0.548 4.34 0.659l0.091 0.005zM44.738 7.483l-1.243 0.418c-4.133 1.488-8.902 2.347-13.873 2.347-0.779 0-1.552-0.021-2.321-0.063l0.107 0.005-1.009-0.062v28.025l0.862 0.074c0.712 0.055 1.543 0.086 2.38 0.086 2.915 0 5.742-0.377 8.435-1.085l-0.23 0.051c2.437-0.626 4.55-1.413 6.553-2.391l-0.202 0.089 0.542-0.246v-27.249z"></path>
<path d="M3.372 51.951c-0.335-0.343-0.803-0.555-1.32-0.555-0.025 0-0.050 0.001-0.075 0.002l0.004-0c-0.271 0-0.542 0.049-0.8 0.148-0.692 0.277-1.171 0.942-1.171 1.718 0 0.032 0.001 0.064 0.002 0.095l-0-0.004v4.677c0 0.32 0.049 0.652 0.185 0.948 0.123 0.246 0.271 0.455 0.468 0.628 0.185 0.16 0.406 0.271 0.64 0.332s0.468 0.098 0.702 0.098c1.072-0.021 1.932-0.894 1.932-1.969 0-0 0-0 0-0v0-0.517h-1.231v0.406c0.012 0.148 0 0.295-0.062 0.418-0.039 0.106-0.098 0.196-0.172 0.271v0c-0.139 0.105-0.314 0.169-0.504 0.172h-0.001c-0.025 0.004-0.053 0.005-0.082 0.005-0.203 0-0.383-0.098-0.495-0.25l-0.001-0.002c-0.108-0.168-0.173-0.374-0.173-0.594 0-0.012 0-0.024 0.001-0.035l-0 0.002v-4.357c0-0.246 0.049-0.48 0.16-0.689 0.111-0.174 0.302-0.287 0.52-0.287 0.025 0 0.049 0.001 0.073 0.004l-0.003-0c0.006-0 0.014-0 0.021-0 0.212 0 0.4 0.101 0.519 0.257l0.001 0.002c0.131 0.166 0.209 0.377 0.209 0.607 0 0.003 0 0.006-0 0.009v-0 0.418h1.206v-0.48c0-0.005 0-0.011 0-0.016 0-0.562-0.21-1.074-0.556-1.463l0.002 0.002zM10.622 51.902c-0.375-0.314-0.862-0.505-1.395-0.505-0.259 0-0.507 0.045-0.738 0.128l0.015-0.005c-0.246 0.086-0.455 0.209-0.64 0.369-0.209 0.197-0.369 0.418-0.48 0.665-0.123 0.283-0.185 0.591-0.172 0.911v4.468c-0.012 0.32 0.049 0.628 0.172 0.923 0.111 0.246 0.271 0.455 0.48 0.615 0.185 0.185 0.394 0.32 0.64 0.406 0.216 0.080 0.466 0.127 0.726 0.127s0.51-0.047 0.741-0.132l-0.015 0.005c0.76-0.263 1.296-0.972 1.296-1.807 0-0.044-0.002-0.088-0.004-0.131l0 0.006v-4.48c0.001-0.026 0.002-0.056 0.002-0.087 0-0.582-0.246-1.107-0.641-1.475l-0.001-0.001zM10.055 57.932c0.002 0.022 0.003 0.047 0.003 0.072 0 0.228-0.096 0.434-0.249 0.58l-0 0c-0.154 0.128-0.354 0.206-0.572 0.206s-0.418-0.078-0.574-0.207l0.002 0.001c-0.154-0.146-0.249-0.352-0.249-0.58 0-0.025 0.001-0.050 0.004-0.075l-0 0.003v-4.468c-0.002-0.022-0.003-0.047-0.003-0.072 0-0.228 0.096-0.434 0.249-0.58l0-0c0.154-0.128 0.354-0.206 0.572-0.206s0.418 0.078 0.574 0.207l-0.002-0.001c0.154 0.146 0.249 0.352 0.249 0.58 0 0.025-0.001 0.050-0.004 0.075l0-0.003v4.468zM20.148 59.938v-8.492h-1.182l-1.538 4.492h-0.025l-1.551-4.492h-1.157v8.48h1.206v-5.169h0.025l1.182 3.655h0.615l1.194-3.643h0.012v5.157h1.218zM27.028 52.062c-0.185-0.222-0.418-0.369-0.689-0.468-0.251-0.086-0.541-0.136-0.842-0.136-0.011 0-0.022 0-0.033 0h-1.795v8.48h1.206v-3.323h0.615c0.382 0.025 0.751-0.049 1.095-0.222 0.488-0.305 0.833-0.8 0.934-1.379l0.002-0.012c0.048-0.285 0.075-0.614 0.075-0.948 0-0.431-0.045-0.852-0.131-1.257l0.007 0.039c-0.084-0.308-0.237-0.574-0.444-0.788l0.001 0.001zM26.412 54.646c-0.012 0.148-0.049 0.295-0.123 0.431-0.074 0.123-0.172 0.246-0.308 0.295-0.157 0.078-0.342 0.123-0.537 0.123-0.010 0-0.020-0-0.030-0h-0.552v-2.892h0.615c0.197 0 0.369 0.025 0.554 0.111 0.123 0.062 0.222 0.172 0.283 0.308 0.060 0.138 0.096 0.298 0.098 0.467v1.158zM32.738 51.458h-0.985l-1.846 8.48h1.206l0.357-1.822h1.637l0.369 1.822h1.194l-1.908-8.48zM31.631 56.96l0.603-3.077h0.012l0.591 3.077h-1.206zM40.554 56.566h-0.025l-1.822-5.108h-1.157v8.48h1.206v-5.095h0.025l1.834 5.095h1.132v-8.492h-1.206v5.108zM47.938 51.458l-0.985 3.372h-0.012l-0.985-3.372h-1.268l1.662 4.898v3.569h1.206v-3.569l1.662-4.898h-1.28zM0 62.326h0.578v1.637h0.406v-1.637h0.578v-0.332h-1.563v0.332zM4.898 61.994l-0.763 1.969h0.418l0.16-0.443h0.788l0.16 0.443h0.431l-0.775-1.969h-0.418zM4.837 63.188l0.258-0.738 0.271 0.738h-0.529zM9.723 63.237h0.468v0.246c-0.126 0.105-0.289 0.17-0.467 0.172h-0.001c-0.010 0.001-0.022 0.001-0.033 0.001-0.156 0-0.294-0.072-0.384-0.185l-0.001-0.001c-0.093-0.132-0.149-0.296-0.149-0.473 0-0.016 0-0.031 0.001-0.046l-0 0.002c0-0.431 0.185-0.652 0.566-0.652 0.012-0.001 0.025-0.002 0.039-0.002 0.192 0 0.354 0.13 0.403 0.307l0.001 0.003 0.394-0.074c-0.086-0.382-0.369-0.578-0.837-0.578-0.011-0-0.024-0.001-0.037-0.001-0.251 0-0.479 0.094-0.653 0.248l0.001-0.001c-0.177 0.174-0.286 0.416-0.286 0.684 0 0.028 0.001 0.055 0.004 0.083l-0-0.004c0 0.271 0.074 0.542 0.246 0.738 0.175 0.183 0.421 0.297 0.694 0.297 0.020 0 0.040-0.001 0.059-0.002l-0.003 0c0.308 0 0.615-0.111 0.837-0.32v-0.775h-0.862v0.332zM14.671 61.994h-0.394v1.969h1.378v-0.332h-0.985v-1.637zM18.855 61.994h-0.406v1.969h0.406v-1.969zM22.942 63.311l-0.812-1.317h-0.382v1.969h0.369v-1.28l0.788 1.28h0.394v-1.969h-0.369v1.317zM26.634 63.102h0.985v-0.332h-0.985v-0.443h1.046v-0.332h-1.452v1.969h1.502v-0.332h-1.108v-0.529zM35.582 62.769h-0.775v-0.775h-0.394v1.969h0.394v-0.862h0.775v0.862h0.394v-1.969h-0.394v0.775zM39.298 63.102h0.985v-0.332h-0.985v-0.443h1.058v-0.332h-1.452v1.969h1.489v-0.332h-1.095v-0.529zM44.332 63.102c0.345-0.062 0.517-0.246 0.517-0.554 0.002-0.017 0.003-0.036 0.003-0.056 0-0.153-0.073-0.289-0.187-0.374l-0.001-0.001c-0.148-0.079-0.325-0.125-0.511-0.125-0.024 0-0.047 0.001-0.070 0.002l0.003-0h-0.837v1.969h0.394v-0.825h0.074c0.086 0 0.172 0.012 0.246 0.049 0.062 0.037 0.123 0.086 0.148 0.148l0.431 0.615h0.468l-0.246-0.369c-0.098-0.197-0.246-0.369-0.431-0.492zM43.938 62.831h-0.295v-0.492h0.308c0.135-0.012 0.283 0 0.406 0.037 0.062 0.045 0.101 0.117 0.101 0.199 0 0.087-0.045 0.163-0.112 0.207l-0.001 0.001c-0.1 0.033-0.216 0.051-0.336 0.051-0.025 0-0.050-0.001-0.074-0.002l0.003 0zM48.135 63.102h0.985v-0.332h-0.985v-0.443h1.058v-0.332h-1.452v1.969h1.489v-0.332h-1.095v-0.529z"></path>
</symbol>
<symbol id="company3" viewBox="0 0 69 64">
<path d="M11.276 62.629l0.076 0.015 0.061 0.031 0.335 0.32c-0.259 0.259-0.579 0.457-0.929 0.609-0.427 0.152-0.884 0.229-1.326 0.213-0.427 0-0.853-0.061-1.249-0.198-0.703-0.243-1.255-0.765-1.533-1.431l-0.006-0.017c-0.144-0.335-0.228-0.725-0.228-1.135s0.084-0.8 0.235-1.154l-0.007 0.019c0.152-0.32 0.366-0.625 0.655-0.884 0.274-0.244 0.609-0.442 0.991-0.564 0.383-0.138 0.826-0.218 1.287-0.218 0.428 0 0.839 0.069 1.224 0.196l-0.028-0.008c0.32 0.122 0.625 0.305 0.884 0.518l-0.274 0.335c-0.021 0.024-0.047 0.045-0.075 0.060l-0.001 0.001c-0.030 0.019-0.066 0.031-0.106 0.031-0 0-0.001 0-0.001 0h0c-0.046-0.006-0.087-0.022-0.123-0.046l0.001 0.001-0.152-0.091-0.198-0.107c-0.306-0.155-0.668-0.246-1.050-0.246-0.038 0-0.076 0.001-0.113 0.003l0.005-0c-0.305 0-0.625 0.046-0.914 0.152-0.542 0.187-0.968 0.588-1.184 1.099l-0.005 0.013c-0.114 0.261-0.181 0.564-0.183 0.883v0.001c0 0.305 0.061 0.625 0.168 0.914 0.209 0.519 0.626 0.916 1.145 1.093l0.013 0.004c0.274 0.091 0.564 0.152 0.853 0.152l0.503-0.031c0.423-0.046 0.8-0.217 1.1-0.475l-0.003 0.002c0.041-0.035 0.094-0.057 0.152-0.061l0.001-0zM20.876 61.029c0 0.396-0.061 0.762-0.213 1.128-0.152 0.32-0.351 0.609-0.625 0.869-0.29 0.259-0.61 0.457-0.991 0.579-0.808 0.274-1.707 0.274-2.529 0-0.377-0.135-0.701-0.332-0.978-0.581l0.003 0.002c-0.263-0.242-0.475-0.537-0.618-0.867l-0.006-0.017c-0.305-0.716-0.305-1.524 0-2.24 0.152-0.335 0.351-0.625 0.625-0.884 0.29-0.244 0.609-0.427 0.975-0.564 0.377-0.131 0.812-0.206 1.265-0.206s0.887 0.076 1.293 0.215l-0.028-0.008c0.366 0.137 0.701 0.335 0.991 0.579 0.517 0.475 0.84 1.154 0.84 1.909 0 0.031-0 0.061-0.002 0.091l0-0.004zM20.008 61.029c0-0.305-0.046-0.609-0.152-0.899-0.202-0.518-0.615-0.916-1.13-1.093l-0.013-0.004c-0.273-0.093-0.587-0.147-0.914-0.147s-0.641 0.054-0.935 0.153l0.021-0.006c-0.278 0.095-0.517 0.241-0.717 0.428l0.001-0.001c-0.196 0.183-0.352 0.407-0.453 0.658l-0.004 0.012c-0.198 0.594-0.198 1.219 0 1.813 0.201 0.523 0.621 0.923 1.145 1.093l0.013 0.004c0.594 0.183 1.25 0.183 1.829 0 0.274-0.107 0.518-0.244 0.716-0.427 0.198-0.198 0.351-0.427 0.442-0.67 0.107-0.305 0.152-0.609 0.152-0.914zM27.429 61.973l0.091 0.213 0.091-0.213 0.107-0.198 2.133-3.352c0.030-0.046 0.076-0.091 0.107-0.091 0.055-0.019 0.117-0.031 0.183-0.031v0h0.625v5.455h-0.747v-4.358l-2.133 3.398c-0.029 0.052-0.070 0.093-0.12 0.121l-0.002 0.001c-0.052 0.029-0.115 0.046-0.181 0.046-0.001 0-0.001 0-0.002 0h-0.122c-0.002 0-0.004 0-0.006 0-0.065 0-0.126-0.017-0.179-0.047l0.002 0.001c-0.052-0.029-0.093-0.070-0.121-0.12l-0.001-0.002-2.194-3.429v4.389h-0.731v-5.455h0.64c0.061 0 0.107 0 0.168 0.031 0.046 0.015 0.091 0.046 0.122 0.091l2.164 3.352 0.107 0.198zM35.413 61.714v2.042h-0.823v-5.455h1.844c0.35 0 0.701 0.046 1.036 0.122 0.274 0.061 0.518 0.183 0.731 0.335 0.183 0.152 0.335 0.335 0.427 0.533 0.091 0.229 0.152 0.457 0.137 0.701 0 0.005 0 0.010 0 0.015 0 0.497-0.238 0.938-0.606 1.216l-0.004 0.003c-0.213 0.168-0.457 0.305-0.731 0.366-0.291 0.087-0.625 0.137-0.971 0.137-0.012 0-0.024-0-0.036-0h0.002l-1.006-0.015zM35.413 61.12h1.006c0.229 0 0.442-0.015 0.655-0.076 0.175-0.056 0.328-0.139 0.46-0.246l-0.003 0.002c0.233-0.194 0.381-0.485 0.381-0.81 0-0.005 0-0.009-0-0.014v0.001c0.001-0.017 0.002-0.037 0.002-0.057 0-0.134-0.029-0.261-0.080-0.375l0.002 0.006c-0.073-0.153-0.176-0.28-0.303-0.379l-0.002-0.002c-0.305-0.213-0.701-0.305-1.112-0.289h-1.006v2.24zM46.583 63.756h-0.655c-0.006 0-0.014 0.001-0.021 0.001-0.060 0-0.116-0.017-0.163-0.047l0.001 0.001c-0.045-0.031-0.081-0.072-0.106-0.12l-0.001-0.002-0.564-1.326h-2.834l-0.594 1.326c-0.048 0.109-0.155 0.184-0.28 0.184-0.009 0-0.017-0-0.026-0.001l0.001 0h-0.64l2.499-5.471h0.869l2.514 5.455zM42.469 61.73h2.347l-0.99-2.209c-0.065-0.143-0.128-0.315-0.177-0.493l-0.006-0.025-0.091 0.289-0.091 0.229-0.99 2.209zM50.179 58.331l0.122 0.091 3.642 4.114v-4.236h0.731v5.455h-0.411c-0.061 0-0.122 0-0.168-0.031-0.054-0.028-0.099-0.063-0.137-0.106l-0-0.001-3.627-4.114v4.251h-0.747v-5.455h0.457c0.031 0 0.091 0 0.137 0.031zM60.8 61.592v2.164h-0.823v-2.164l-2.301-3.291h0.747c0.006-0 0.014-0.001 0.021-0.001 0.060 0 0.116 0.017 0.163 0.047l-0.001-0.001 0.107 0.122 1.432 2.133c0.090 0.135 0.177 0.29 0.251 0.452l0.008 0.021 0.107-0.229 0.152-0.244 1.402-2.133c0.031-0.047 0.066-0.087 0.106-0.121l0.001-0.001c0.047-0.038 0.107-0.061 0.173-0.061 0.004 0 0.007 0 0.011 0h0.761l-2.316 3.307zM27.017 49.158l1.097 0.091c5.562-2.133 10.185-5.667 13.582-10.178l0.056-0.078c3.028-4.036 4.85-9.13 4.85-14.649 0-0.154-0.001-0.307-0.004-0.46l0 0.023-6.187-5.364c1.265 5.684 0.67 11.55-1.691 16.96-2.593 5.665-6.602 10.3-11.583 13.579l-0.12 0.074z"></path>
<path d="M24.808 48.914l0.168 0.015c5.638-3.505 9.95-8.396 12.343-14.065 1.365-3.082 2.159-6.678 2.159-10.459 0-2.565-0.366-5.044-1.048-7.389l0.047 0.187-8.808-7.634c2.744 4.693 4.364 10.332 4.364 16.35 0 1.381-0.085 2.741-0.251 4.077l0.016-0.16c-1.003 7.439-4.242 13.984-9.009 19.083l0.018-0.020zM54.659 30.217c-1.712 6.218-5.379 11.412-10.285 15.017l-0.077 0.054c-1.524 1.158-3.169 2.179-4.907 3.063 4.251-1.082 8.168-3.002 11.429-5.608 3.151-2.497 5.662-5.662 7.34-9.291l0.065-0.157-3.566-3.078z"></path>
<path d="M53.257 29.349l-5.090-4.419c-0.135 5.362-1.903 10.286-4.821 14.322l0.051-0.075c-3.181 4.382-7.371 7.845-12.241 10.084l-0.193 0.080h0.030c1.143 0 2.286-0.061 3.413-0.168 4.834-1.705 8.953-4.391 12.289-7.839l0.008-0.009c3.123-3.23 5.413-7.282 6.516-11.8l0.036-0.177zM25.554 6.339l-6.065-5.272c-5.411 1.782-9.957 4.965-13.354 9.122l-0.041 0.051c-3.11 3.835-5.010 8.761-5.059 14.13l-0 0.011c0.080 5.951 2.4 11.345 6.154 15.39l-0.013-0.015c4.082 4.394 9.456 7.536 15.517 8.819l0.193 0.034c5.258-5.42 8.69-12.637 9.289-20.643l0.007-0.111c0.033-0.548 0.052-1.189 0.052-1.834 0-7.44-2.513-14.293-6.736-19.757l0.055 0.075zM67.261 28.541c-0.015-6.629-3.048-12.952-8.442-17.646-5.384-4.559-12.407-7.33-20.078-7.33-0.077 0-0.154 0-0.231 0.001l0.012-0c-3.52 0-7.009 0.564-10.301 1.676l37.12 32.229c1.209-2.624 1.915-5.694 1.92-8.928v-0.002z"></path>
</symbol>
<symbol id="company4" viewBox="0 0 130 64">
<path d="M20.038 19.962c-3.657 0-6.629 2.636-6.629 5.882 0 3.261 2.971 5.882 6.613 5.882 3.657 0 6.629-2.621 6.629-5.882 0-3.246-2.971-5.882-6.613-5.882zM68.876 18.088c-0.015-4.511-2.042-8.838-5.638-12.038-3.566-3.096-8.255-4.983-13.384-4.983-0.041 0-0.082 0-0.123 0h0.006c-5.074 0-9.95 1.798-13.531 4.998-3.402 2.929-5.564 7.216-5.638 12.010l-0 0.013v24.869s38.309-3.794 38.309-24.869zM0 51.124c0 3.139 1.417 6.141 3.916 8.366 2.484 2.159 5.75 3.474 9.324 3.474 0.027 0 0.055-0 0.082-0h-0.004c3.535 0 6.918-1.249 9.417-3.474 2.364-2.039 3.866-5.022 3.916-8.357l0-0.009v-17.295s-26.651 2.636-26.651 17.295zM13.318 54.217c-0.686 0-1.371-0.168-1.935-0.518-0.556-0.327-0.995-0.8-1.272-1.368l-0.008-0.019c-0.168-0.348-0.266-0.756-0.266-1.188 0-0.216 0.025-0.427 0.071-0.629l-0.004 0.019c0.137-0.609 0.457-1.143 0.96-1.585 0.486-0.428 1.092-0.73 1.761-0.85l0.022-0.003c0.671-0.107 1.371-0.046 2.011 0.183s1.189 0.625 1.569 1.143c0.364 0.475 0.584 1.078 0.584 1.733 0 0.873-0.39 1.655-1.006 2.18l-0.004 0.003c-0.335 0.305-0.716 0.518-1.143 0.686-0.427 0.152-0.869 0.229-1.341 0.229zM40.259 52.511h-2.575v2.667h-1.341v-6.507h4.236v1.082h-2.895v1.676h2.575v1.082zM46.69 52.069c0 0.64-0.107 1.204-0.335 1.676-0.403 0.906-1.295 1.525-2.332 1.525-0.032 0-0.064-0.001-0.096-0.002l0.005 0c-0.027 0.001-0.059 0.002-0.091 0.002-1.033 0-1.925-0.605-2.341-1.479l-0.007-0.016c-0.213-0.461-0.337-1.001-0.337-1.569 0-0.038 0.001-0.075 0.002-0.112l-0 0.005v-0.289c0-0.655 0.107-1.219 0.335-1.691 0.416-0.907 1.317-1.525 2.361-1.525 0.027 0 0.054 0 0.081 0.001l-0.004-0c0.533 0 1.021 0.137 1.432 0.396 0.427 0.259 0.762 0.64 0.975 1.128 0.244 0.472 0.35 1.036 0.35 1.676v0.305zM45.333 51.764c0-0.67-0.122-1.189-0.366-1.539-0.216-0.324-0.579-0.534-0.992-0.534-0.016 0-0.031 0-0.046 0.001l0.002-0c-0.457 0-0.808 0.168-1.051 0.518s-0.366 0.869-0.366 1.539v0.32c0 0.67 0.122 1.173 0.366 1.539s0.609 0.549 1.067 0.549c0.442 0 0.777-0.168 1.021-0.518s0.366-0.869 0.366-1.539v-0.32zM51.032 53.471c0-0.259-0.091-0.457-0.259-0.579-0.28-0.182-0.605-0.328-0.951-0.421l-0.024-0.005c-0.457-0.152-0.823-0.305-1.097-0.457-0.731-0.396-1.112-0.929-1.112-1.6 0-0.366 0.107-0.67 0.305-0.945s0.472-0.488 0.853-0.655c0.366-0.152 0.777-0.229 1.249-0.229 0.457 0 0.869 0.091 1.234 0.259 0.366 0.152 0.64 0.396 0.853 0.716 0.198 0.305 0.305 0.655 0.305 1.036h-1.341c0-0.305-0.107-0.533-0.289-0.686-0.196-0.162-0.45-0.261-0.727-0.261-0.023 0-0.046 0.001-0.069 0.002l0.003-0c-0.021-0.001-0.045-0.002-0.070-0.002-0.259 0-0.498 0.081-0.696 0.218l0.004-0.003c-0.167 0.12-0.274 0.314-0.274 0.533 0 0.005 0 0.011 0 0.016v-0.001c0 0.213 0.107 0.381 0.32 0.533 0.213 0.137 0.533 0.274 0.945 0.396 0.762 0.229 1.31 0.518 1.676 0.853 0.335 0.335 0.503 0.762 0.503 1.265 0 0.564-0.198 1.006-0.625 1.326s-1.006 0.488-1.722 0.488c-0.013 0-0.028 0-0.043 0-0.48 0-0.937-0.101-1.35-0.283l0.022 0.008c-0.745-0.281-1.265-0.987-1.265-1.816 0-0.015 0-0.031 0.001-0.046l-0 0.002h1.341c0 0.716 0.442 1.067 1.295 1.067 0.305 0 0.564-0.061 0.747-0.183 0.168-0.152 0.259-0.32 0.259-0.549zM58.194 49.752h-1.996v5.425h-1.341v-5.425h-1.981v-1.067h5.303v1.067zM62.857 52.343h-2.56v1.752h3.017v1.067h-4.358v-6.491h4.343v1.082h-3.002v1.554h2.56v1.051zM66.514 52.8h-1.067v2.377h-1.356v-6.507h2.423c0.762 0 1.356 0.168 1.768 0.518 0.427 0.335 0.625 0.823 0.625 1.448 0 0.457-0.091 0.808-0.29 1.112-0.183 0.305-0.472 0.533-0.869 0.701l1.402 2.667v0.061h-1.432l-1.219-2.377zM65.448 51.703h1.067c0.335 0 0.609-0.076 0.777-0.244 0.171-0.166 0.276-0.398 0.276-0.655 0-0.022-0.001-0.043-0.002-0.064l0 0.003c0-0.305-0.076-0.549-0.259-0.716-0.168-0.183-0.442-0.274-0.792-0.274h-1.067v1.95zM73.554 52.876v2.286h-1.341v-6.491h2.529c0.488 0 0.914 0.091 1.295 0.274 0.366 0.168 0.655 0.427 0.853 0.762 0.198 0.32 0.305 0.701 0.305 1.112 0 0.64-0.229 1.143-0.671 1.524-0.427 0.35-1.036 0.533-1.798 0.533h-1.173zM73.554 51.809h1.189c0.35 0 0.625-0.091 0.808-0.259 0.198-0.168 0.29-0.411 0.29-0.716 0-0.009 0-0.020 0-0.031 0-0.283-0.11-0.541-0.29-0.732l0.001 0.001c-0.19-0.188-0.452-0.305-0.74-0.305-0.008 0-0.015 0-0.023 0h-1.233v2.027zM82.027 52.358h-2.575v1.737h3.017v1.067h-4.358v-6.491h4.343v1.082h-3.002v1.554h2.575v1.051zM88.244 49.768h-1.996v5.41h-1.341v-5.425h-1.966v-1.067h5.303v1.067zM92.922 52.358h-2.591v1.737h3.032v1.067h-4.373v-6.491h4.343v1.082h-2.971v1.554h2.575v1.051zM96.549 52.8h-1.067v2.377h-1.341v-6.507h2.423c0.762 0 1.371 0.168 1.783 0.518 0.411 0.335 0.609 0.823 0.609 1.448 0 0.457-0.091 0.808-0.274 1.112-0.198 0.305-0.488 0.533-0.884 0.701l1.417 2.667v0.061h-1.448l-1.219-2.377zM95.482 51.703h1.082c0.335 0 0.609-0.076 0.792-0.244 0.171-0.166 0.276-0.398 0.276-0.655 0-0.022-0.001-0.043-0.002-0.064l0 0.003c0-0.305-0.091-0.549-0.274-0.716-0.152-0.183-0.427-0.274-0.792-0.274h-1.067v1.95zM103.36 53.471c0-0.259-0.091-0.457-0.274-0.579-0.276-0.18-0.595-0.326-0.936-0.421l-0.024-0.006c-0.457-0.152-0.838-0.305-1.097-0.457-0.747-0.396-1.112-0.929-1.112-1.6 0-0.366 0.091-0.67 0.305-0.945 0.183-0.274 0.472-0.488 0.838-0.655 0.381-0.152 0.792-0.229 1.249-0.229s0.884 0.091 1.249 0.259c0.366 0.152 0.64 0.396 0.838 0.716 0.198 0.305 0.305 0.655 0.305 1.036h-1.341c0-0.305-0.091-0.533-0.274-0.686-0.196-0.162-0.45-0.261-0.727-0.261-0.023 0-0.046 0.001-0.069 0.002l0.003-0c-0.021-0.001-0.045-0.002-0.070-0.002-0.259 0-0.499 0.081-0.696 0.218l0.004-0.003c-0.167 0.12-0.274 0.314-0.274 0.533 0 0.005 0 0.011 0 0.016v-0.001c0 0.213 0.107 0.381 0.305 0.533 0.229 0.137 0.533 0.274 0.96 0.396 0.762 0.229 1.311 0.518 1.661 0.853s0.518 0.762 0.518 1.265c0 0.564-0.213 1.006-0.64 1.326s-0.99 0.488-1.722 0.488c-0.013 0-0.028 0-0.043 0-0.48 0-0.937-0.101-1.35-0.283l0.022 0.008c-0.745-0.281-1.265-0.987-1.265-1.816 0-0.015 0-0.031 0.001-0.046l-0 0.002h1.356c0 0.716 0.427 1.067 1.28 1.067 0.32 0 0.579-0.061 0.762-0.183 0.168-0.152 0.259-0.32 0.259-0.549z"></path>
</symbol>
<symbol id="company5" viewBox="0 0 86 64">
<path d="M6.482 52.752c0.327 0.368 0.504 0.844 0.49 1.321 0.027 0.313-0.041 0.626-0.177 0.926-0.136 0.286-0.327 0.545-0.586 0.763-0.654 0.436-1.443 0.654-2.26 0.613h-3.949v-8.443h3.867c0.063-0.004 0.138-0.006 0.212-0.006 0.722 0 1.393 0.216 1.952 0.587l-0.013-0.008c0.245 0.191 0.449 0.436 0.572 0.708 0.136 0.272 0.191 0.572 0.177 0.871 0.027 0.463-0.136 0.912-0.449 1.28-0.3 0.34-0.708 0.572-1.171 0.667 0.517 0.082 0.994 0.34 1.334 0.722zM1.852 51.472h1.634c0.381 0.027 0.763-0.068 1.062-0.272 0.136-0.109 0.218-0.231 0.272-0.381 0.068-0.136 0.095-0.3 0.082-0.449 0.003-0.026 0.004-0.056 0.004-0.086 0-0.131-0.026-0.256-0.074-0.37l0.002 0.006c-0.065-0.145-0.157-0.268-0.271-0.367l-0.001-0.001c-0.267-0.182-0.597-0.291-0.953-0.291-0.048 0-0.096 0.002-0.143 0.006l0.006-0h-1.634v2.206zM4.712 54.713c0.136-0.109 0.231-0.245 0.3-0.395 0.068-0.136 0.095-0.313 0.095-0.463 0.001-0.016 0.001-0.034 0.001-0.052 0-0.154-0.036-0.3-0.099-0.43l0.003 0.006c-0.074-0.158-0.181-0.29-0.311-0.393l-0.002-0.002c-0.283-0.19-0.632-0.303-1.007-0.303-0.039 0-0.077 0.001-0.115 0.004l0.005-0h-1.743v2.315h1.77c0.381 0.027 0.776-0.082 1.089-0.3zM14.393 56.374l-2.138-3.295h-0.817v3.295h-1.866v-8.443h3.513c0.075-0.005 0.163-0.009 0.252-0.009 0.829 0 1.594 0.274 2.209 0.737l-0.009-0.007c0.518 0.466 0.842 1.138 0.842 1.886 0 0.609-0.215 1.168-0.573 1.605l0.004-0.004c-0.449 0.463-1.049 0.763-1.688 0.858l2.288 3.377h-2.015zM11.438 51.922h1.525c1.049 0 1.58-0.408 1.58-1.266 0.001-0.016 0.001-0.035 0.001-0.054 0-0.167-0.036-0.327-0.1-0.47l0.003 0.007c-0.071-0.171-0.173-0.316-0.299-0.435l-0.001-0.001c-0.287-0.216-0.65-0.346-1.043-0.346-0.050 0-0.1 0.002-0.148 0.006l0.006-0h-1.552l0.014 2.56zM24.524 54.672h-3.69l-0.654 1.702h-1.947l3.404-8.347h2.097l3.377 8.347h-1.947l-0.654-1.702zM24.034 53.392l-1.362-3.554-1.348 3.554h2.71zM37.202 56.374h-1.838l-4.126-5.733v5.719h-1.825v-8.415h1.838l4.126 5.76v-5.76h1.838v8.429zM47.7 54.346c-0.381 0.64-0.953 1.157-1.661 1.498-0.803 0.368-1.688 0.545-2.587 0.531h-3.268v-8.443h3.268c0.899-0.014 1.784 0.163 2.587 0.531 0.708 0.327 1.28 0.831 1.661 1.471 0.358 0.636 0.569 1.396 0.569 2.206s-0.211 1.57-0.581 2.229l0.012-0.023zM45.603 54.155c0.517-0.558 0.817-1.28 0.817-2.015s-0.3-1.457-0.817-2.015c-0.569-0.446-1.295-0.716-2.084-0.716-0.081 0-0.162 0.003-0.242 0.008l0.011-0.001h-1.266v5.447h1.28c0.831 0.054 1.661-0.204 2.301-0.708zM25.682 1.048s23.734 8.197 23.231 20.085v20.085s-23.721-8.211-23.231-20.085v-20.085zM70.073 36.521c4.303-2.731 9.437-4.556 14.949-5.082l0.139-0.011v-6.291c-6.244 2.19-11.405 6.155-15.023 11.287l-0.064 0.096z"></path>
<path d="M67.377 38.4c3.897-6.87 10.113-12.043 17.562-14.507l0.222-0.064v-18.151s-33.825 11.724-33.103 28.637v28.596s1.498-0.517 3.881-1.498c0-0.926 0-1.838 0.109-2.764 0.844-8.291 5.071-15.456 11.259-20.183l0.070-0.051z"></path>
<path d="M64.163 49.035c0.177-1.974 0.572-3.949 1.185-5.855-4.261 4.527-6.947 10.577-7.162 17.252l-0.001 0.042c1.92-0.858 4.153-1.906 6.509-3.146-0.599-2.723-0.776-5.515-0.531-8.293zM65.498 49.144c-0.218 2.506-0.068 5.038 0.422 7.489 9.246-5.052 19.622-12.868 19.227-22.332v-0.817c-6.786 0.676-12.832 3.406-17.619 7.55l0.040-0.034c-1.059 2.382-1.79 5.144-2.049 8.042l-0.007 0.101z"></path>
</symbol>
<symbol id="company6" viewBox="0 0 134 64">
<path d="M67.442 30.436c-0.538-0.698-0.862-1.585-0.862-2.547 0-0.095 0.003-0.188 0.009-0.281l-0.001 0.013v-4.096c0-1.266 0.284-2.219 0.853-2.873s1.564-0.981 2.944-0.967c1.294 0 2.233 0.284 2.773 0.825 0.597 0.711 0.882 1.579 0.825 2.46v0.953h-2.332v-0.967c0-0.327-0.014-0.64-0.071-0.953-0.038-0.231-0.157-0.429-0.326-0.568l-0.002-0.001c-0.212-0.145-0.474-0.231-0.756-0.231-0.034 0-0.068 0.001-0.102 0.004l0.004-0c-0.025-0.002-0.055-0.003-0.085-0.003-0.297 0-0.574 0.091-0.802 0.247l0.005-0.003c-0.197 0.154-0.339 0.37-0.397 0.618l-0.001 0.007c-0.057 0.327-0.085 0.668-0.085 0.996v4.978c-0.043 0.498 0.071 0.967 0.299 1.408 0.114 0.142 0.284 0.27 0.469 0.341 0.132 0.051 0.286 0.080 0.446 0.080 0.053 0 0.106-0.003 0.158-0.010l-0.006 0.001c0.033 0.003 0.071 0.005 0.11 0.005 0.267 0 0.514-0.081 0.719-0.221l-0.004 0.003c0.185-0.15 0.314-0.363 0.355-0.606l0.001-0.006c0.043-0.327 0.071-0.668 0.071-0.996v-1.024h2.332v0.924c0.057 0.91-0.228 1.82-0.811 2.574-0.54 0.612-1.451 0.91-2.788 0.91-1.351 0-2.361-0.327-2.944-0.996zM77.17 30.492c-0.597-0.64-0.882-1.564-0.882-2.802v-4.309c0-1.223 0.284-2.133 0.882-2.773 0.583-0.626 1.564-0.939 2.958-0.924 1.365 0 2.347 0.299 2.93 0.924 0.597 0.626 0.896 1.55 0.896 2.773v4.309c0 1.223-0.299 2.148-0.896 2.788-0.597 0.654-1.564 0.967-2.93 0.967s-2.375-0.327-2.958-0.953zM81.209 29.454c0.213-0.398 0.313-0.839 0.284-1.28v-5.276c0.028-0.427-0.071-0.853-0.284-1.252-0.122-0.151-0.28-0.268-0.462-0.339l-0.008-0.003c-0.133-0.052-0.288-0.081-0.449-0.081-0.057 0-0.114 0.004-0.169 0.011l0.007-0.001c-0.051-0.007-0.11-0.011-0.169-0.011-0.164 0-0.321 0.030-0.465 0.085l0.009-0.003c-0.194 0.072-0.357 0.189-0.482 0.34l-0.001 0.002c-0.199 0.384-0.299 0.825-0.284 1.252v5.305c-0.014 0.427 0.071 0.882 0.284 1.28 0.291 0.262 0.678 0.422 1.102 0.422 0.212 0 0.415-0.040 0.602-0.113l-0.011 0.004c0.199-0.071 0.356-0.185 0.498-0.313v-0.028zM86.756 19.797h2.517l1.892 7.964 1.934-7.964h2.446l0.242 11.492h-1.806l-0.199-7.979-1.849 7.979h-1.479l-1.934-8.007-0.171 8.007h-1.835l0.228-11.492zM98.603 19.797h3.911c2.261 0 3.385 1.095 3.385 3.271 0 2.076-1.18 3.129-3.556 3.129h-1.337v5.092h-2.418l0.014-11.492zM101.945 24.718c0.242 0.014 0.484 0 0.711-0.057 0.228-0.071 0.441-0.171 0.626-0.313 0.27-0.384 0.398-0.853 0.341-1.294 0-0.356-0.028-0.711-0.114-1.052-0.041-0.122-0.104-0.226-0.185-0.313l0.001 0c-0.083-0.093-0.182-0.169-0.293-0.225l-0.006-0.003c-0.341-0.142-0.711-0.199-1.081-0.185h-0.939v3.442h0.939zM109.369 19.797h2.603l2.674 11.492h-2.261l-0.526-2.645h-2.318l-0.54 2.645h-2.276l2.66-11.492zM111.602 27.307l-0.91-4.821-0.896 4.836h1.806zM116.793 19.797h1.692l3.228 6.556v-6.542h2.020v11.477h-1.607l-3.257-6.827v6.827h-2.076v-11.492zM128.427 26.908l-2.702-7.097h2.276l1.636 4.551 1.536-4.551h2.219l-2.645 7.111v4.366h-2.332v-4.38zM71.182 36.309v0.597h-1.977v4.679h-0.825v-4.679h-1.991v-0.597h4.793zM77.369 41.586h-0.654c-0.064 0-0.124-0.021-0.171-0.057l0.001 0.001c-0.048-0.027-0.087-0.065-0.113-0.112l-0.001-0.001-0.569-1.252h-2.731l-0.569 1.252c-0.017 0.056-0.047 0.104-0.085 0.142v0c-0.043 0.028-0.096 0.044-0.153 0.044-0.011 0-0.022-0.001-0.034-0.002l0.001 0h-0.64l2.418-5.262h0.853l2.432 5.248zM73.358 39.623h2.276l-0.967-2.133c-0.060-0.139-0.118-0.31-0.165-0.485l-0.006-0.027-0.1 0.284-0.085 0.228-0.953 2.133zM81.522 41.060h0.455c0.269-0.014 0.521-0.065 0.759-0.148l-0.019 0.006 0.313-0.142v-1.18h-0.967c-0.001 0-0.003 0-0.005 0-0.047 0-0.090-0.016-0.124-0.043l0 0c-0.012-0.012-0.022-0.026-0.028-0.042l-0-0.001-0.014-0.057v-0.398h1.877v2.020c-0.463 0.287-1.016 0.477-1.608 0.525l-0.013 0.001c-0.242 0.028-0.469 0.043-0.711 0.043-0.427 0-0.825-0.071-1.223-0.199-0.373-0.131-0.694-0.319-0.971-0.558l0.004 0.003c-0.253-0.227-0.459-0.502-0.605-0.809l-0.007-0.016c-0.156-0.356-0.228-0.725-0.228-1.095-0.001-0.027-0.002-0.058-0.002-0.089 0-0.738 0.331-1.398 0.852-1.842l0.003-0.003c0.256-0.242 0.597-0.427 0.953-0.555 0.378-0.129 0.813-0.203 1.266-0.203 0.246 0 0.488 0.022 0.722 0.064l-0.025-0.004c0.398 0.057 0.758 0.177 1.085 0.35l-0.018-0.009c0.142 0.071 0.284 0.171 0.427 0.27l-0.242 0.327c-0.021 0.031-0.050 0.055-0.084 0.071l-0.001 0.001c-0.029 0.016-0.063 0.026-0.099 0.028l-0.001 0c-0.053-0.003-0.101-0.018-0.144-0.043l0.001 0.001c-0.085-0.028-0.156-0.071-0.242-0.128-0.384-0.189-0.836-0.299-1.313-0.299-0.023 0-0.047 0-0.070 0.001l0.003-0c-0.015-0-0.032-0-0.049-0-0.318 0-0.624 0.052-0.909 0.148l0.020-0.006c-0.284 0.1-0.512 0.242-0.711 0.427-0.192 0.175-0.346 0.388-0.451 0.628l-0.005 0.012c-0.213 0.569-0.213 1.195 0 1.764 0.335 0.713 1.047 1.197 1.872 1.197 0.092 0 0.183-0.006 0.272-0.018l-0.010 0.001zM89.23 40.974h2.631v0.612h-3.442v-5.262h0.825l-0.014 4.651zM94.606 41.586h-0.825v-5.262h0.825v5.262zM97.678 36.338c0.057 0.028 0.1 0.057 0.128 0.1l3.527 3.968v-4.11h0.711v5.291h-0.398c-0.071 0-0.128 0-0.185-0.028-0.050-0.027-0.092-0.060-0.128-0.099l-0-0-3.527-3.982v4.11h-0.697v-5.262h0.569zM108.146 36.309v0.569h-2.93v1.749h2.375v0.569h-2.375v1.792h2.93v0.569h-3.783v-5.248h3.783zM21.561 3.783l36.693 8.988v31.516l-36.693-8.988v-31.516zM19.214 1.081v35.755l41.387 10.155v-35.755l-41.401-10.14z"></path>
<path d="M41.387 63.573l-41.387-10.183v-35.712l41.387 10.155v35.726z"></path>
<path d="M19.897 3.371l36.21 8.889-15.403 13.284-36.21-8.875 15.403-13.298zM19.214 1.095l-19.214 16.583 41.387 10.155 19.2-16.597-41.387-10.14zM43.719 61.554l16.882-14.578-16.882-4.139v18.716z"></path>
</symbol>
<symbol id="diagram" viewBox="0 0 32 32">
<path fill="#2196f3" style="fill: var(--color2, #2196f3)" d="M14.926 14.967h1.065v4.795h-1.065v-4.8zM19.191 17.097h1.065v2.665h-1.065v-2.665zM10.661 18.697h1.065v1.065h-1.065v-1.065zM7.461 18.162h1.070v1.6h-1.070v-1.6z"></path>
<path fill="#212121" style="fill: var(--color1, #212121)" d="M1.6 28.293h25.586c0.884 0 1.6-0.716 1.6-1.6v0-2.135c0-0.884-0.716-1.6-1.6-1.6v0h-0.535v-13.285l3.031-2.871c0.207 0.104 0.45 0.164 0.708 0.164 0.889 0 1.609-0.72 1.609-1.609s-0.72-1.609-1.609-1.609c-0.889 0-1.609 0.72-1.609 1.609 0 0.247 0.056 0.482 0.156 0.691l-0.004-0.010-2.281 2.162v-1.23c0-0.884-0.716-1.6-1.6-1.6v0h-21.321c-0.884 0-1.6 0.716-1.6 1.6v0 15.995h-0.53c-0.884 0-1.6 0.716-1.6 1.6v0 2.13c0 0.884 0.716 1.6 1.6 1.6v0zM30.386 4.837c0.015-0.001 0.032-0.002 0.049-0.002 0.295 0 0.535 0.239 0.535 0.535s-0.239 0.535-0.535 0.535c-0.017 0-0.035-0.001-0.052-0.002l0.002 0c-0.273-0.026-0.485-0.255-0.485-0.533s0.212-0.506 0.483-0.532l0.002-0zM3.2 6.967c0-0.293 0.238-0.53 0.53-0.53h21.321c0.297 0 0.535 0.238 0.535 0.53v2.24l-1.065 1.015v-2.185c0-0.297-0.238-0.535-0.535-0.535h-19.186c-0.293 0-0.53 0.238-0.53 0.535v13.326c0 0.293 0.238 0.53 0.53 0.53h19.191c0.297 0 0.535-0.238 0.535-0.53v-9.673l1.065-1.010v12.283h-22.391v-15.995zM8 13.897c-0.004-0-0.009-0-0.013-0-0.884 0-1.6 0.716-1.6 1.6s0.716 1.6 1.6 1.6c0.434 0 0.827-0.173 1.115-0.453l-0 0 1.856 0.933c0.215 0.105 0.475 0.055 0.635-0.123l3.936-4.434 3.872 2.903c0.21 0.155 0.503 0.137 0.686-0.037l3.369-3.191v8.137h-18.126v-12.27h18.126v2.661l-3.771 3.57-3.904-2.926c-0.088-0.067-0.2-0.107-0.322-0.107-0.159 0-0.302 0.070-0.4 0.18l-0 0.001-3.991 4.494-1.495-0.75c0.014-0.064 0.018-0.128 0.023-0.192 0-0.884-0.716-1.6-1.6-1.6v0zM8.53 15.497c0 0.295-0.239 0.535-0.535 0.535s-0.535-0.239-0.535-0.535v0c0-0.295 0.239-0.535 0.535-0.535s0.535 0.239 0.535 0.535v0zM11.73 24.027h5.321v0.53c0 0.297-0.238 0.535-0.53 0.535h-4.265c-0.293 0-0.535-0.238-0.535-0.535v-0.53zM1.061 24.558c0-0.293 0.238-0.53 0.535-0.53h9.061v0.53c0 0.884 0.716 1.6 1.6 1.6v0h4.265c0.884 0 1.6-0.716 1.6-1.6v0-0.53h9.061c0.293 0 0.53 0.238 0.53 0.53v2.135c0 0.293-0.238 0.53-0.53 0.53h-25.582c-0.297 0-0.535-0.238-0.535-0.53v-2.135z"></path>
</symbol>
<symbol id="envelope" viewBox="0 0 43 32">
<path d="M38.667 0h-34.667c-2.206 0-4 1.794-4 4v24c0 2.206 1.794 4 4 4h34.667c2.206 0 4-1.794 4-4v-24c0-2.206-1.794-4-4-4zM38.667 2.667c0.181 0 0.353 0.038 0.511 0.103l-17.844 15.466-17.844-15.466c0.158-0.066 0.33-0.103 0.511-0.103h34.667zM38.667 29.333h-34.667c-0.736 0-1.333-0.598-1.333-1.333v-22.413l17.793 15.421c0.251 0.217 0.563 0.326 0.874 0.326s0.622-0.108 0.874-0.326l17.793-15.421v22.413c0 0.736-0.598 1.333-1.333 1.333z"></path>
</symbol>
<symbol id="facebook-footer" viewBox="0 0 32 32">
<path fill="#fff" style="fill: var(--color5, #fff)" d="M21.328 5.312h2.928v-5.088c-0.512-0.064-2.24-0.224-4.256-0.224-4.224 0-7.104 2.656-7.104 7.52v4.48h-4.64v5.68h4.64v14.32h5.696v-14.304h4.464l0.704-5.696h-5.168v-3.92c0-1.648 0.448-2.768 2.736-2.768z"></path>
</symbol>
<symbol id="facebook-team" viewBox="0 0 32 32">
<path d="M21.328 5.312h2.928v-5.088c-0.512-0.064-2.24-0.224-4.256-0.224-4.224 0-7.104 2.656-7.104 7.52v4.48h-4.64v5.68h4.64v14.32h5.696v-14.304h4.464l0.704-5.696h-5.168v-3.92c0-1.648 0.448-2.768 2.736-2.768z"></path>
</symbol>
<symbol id="instagram-footer" viewBox="0 0 32 32">
<path fill="#fff" style="fill: var(--color5, #fff)" d="M31.968 9.408c-0.024-1.403-0.292-2.735-0.763-3.968l0.027 0.080c-0.427-1.109-1.058-2.054-1.854-2.83l-0.002-0.002c-0.8-0.8-1.76-1.44-2.832-1.84-1.151-0.448-2.483-0.721-3.875-0.752l-0.013-0c-1.458-0.070-3.167-0.109-4.885-0.109-0.6 0-1.199 0.005-1.797 0.014l0.090-0.001c-4.352 0-4.896 0.016-6.592 0.096-1.712 0.064-2.88 0.352-3.888 0.736-1.072 0.416-2.032 1.040-2.832 1.856-0.816 0.8-1.44 1.76-1.856 2.832-0.443 1.152-0.711 2.485-0.736 3.877l-0 0.011c-0.070 1.458-0.109 3.167-0.109 4.885 0 0.6 0.005 1.199 0.014 1.797l-0.001-0.090c0 4.352 0 4.896 0.080 6.592 0.030 1.405 0.303 2.737 0.779 3.968l-0.027-0.080c0.4 1.072 1.040 2.032 1.856 2.832 0.8 0.816 1.76 1.44 2.832 1.856 1.008 0.384 2.176 0.656 3.872 0.736 1.712 0.080 2.24 0.096 6.592 0.096s4.896-0.016 6.608-0.096c1.397-0.026 2.724-0.294 3.952-0.763l-0.080 0.027c2.16-0.851 3.837-2.528 4.669-4.633l0.019-0.055c0.384-1.024 0.672-2.176 0.736-3.888 0.080-1.696 0.096-2.24 0.096-6.592 0-4.336 0-4.88-0.080-6.592zM29.088 22.48c-0.064 1.552-0.32 2.4-0.544 2.96-0.552 1.401-1.639 2.488-3.004 3.027l-0.036 0.013c-0.56 0.224-1.424 0.48-2.976 0.544-1.68 0.080-2.192 0.096-6.464 0.096-0.465 0.007-1.013 0.011-1.562 0.011-1.724 0-3.439-0.039-5.144-0.116l0.242 0.009c-1.568-0.064-2.4-0.32-2.96-0.544-0.722-0.271-1.337-0.68-1.839-1.199l-0.001-0.001c-0.518-0.5-0.926-1.108-1.189-1.79l-0.011-0.034c-0.336-0.884-0.535-1.905-0.544-2.972l-0-0.004c-0.068-1.463-0.107-3.179-0.107-4.903 0-0.549 0.004-1.097 0.012-1.643l-0.001 0.083c0-4.272 0.016-4.784 0.096-6.464 0.064-1.568 0.32-2.4 0.544-2.976 0.256-0.688 0.656-1.312 1.2-1.824 0.504-0.519 1.118-0.928 1.806-1.189l0.034-0.011c0.56-0.224 1.408-0.48 2.976-0.544 1.68-0.080 2.192-0.096 6.448-0.096 4.288 0 4.8 0 6.464 0.096 1.568 0.064 2.4 0.32 2.976 0.544 0.688 0.256 1.328 0.656 1.84 1.2 0.528 0.512 0.944 1.136 1.2 1.824 0.208 0.576 0.48 1.424 0.544 2.976 0.080 1.68 0.096 2.192 0.096 6.464s-0.016 4.768-0.096 6.464z"></path>
<path fill="#fff" style="fill: var(--color5, #fff)" d="M16.064 7.776c-4.542 0-8.224 3.682-8.224 8.224s3.682 8.224 8.224 8.224v0c4.542 0 8.224-3.682 8.224-8.224s-3.682-8.224-8.224-8.224v0zM16.064 21.328c-2.943 0-5.328-2.385-5.328-5.328s2.385-5.328 5.328-5.328v0c2.943 0 5.328 2.385 5.328 5.328s-2.385 5.328-5.328 5.328v0zM26.528 7.456c0 1.060-0.86 1.92-1.92 1.92s-1.92-0.86-1.92-1.92v0c0-1.060 0.86-1.92 1.92-1.92s1.92 0.86 1.92 1.92v0z"></path>
</symbol>
<symbol id="instagram-team" viewBox="0 0 32 32">
<path d="M31.968 9.408c-0.024-1.403-0.292-2.735-0.763-3.968l0.027 0.080c-0.427-1.109-1.058-2.054-1.854-2.83l-0.002-0.002c-0.8-0.8-1.76-1.44-2.832-1.84-1.151-0.448-2.483-0.721-3.875-0.752l-0.013-0c-1.458-0.070-3.167-0.109-4.885-0.109-0.6 0-1.199 0.005-1.797 0.014l0.090-0.001c-4.352 0-4.896 0.016-6.592 0.096-1.712 0.064-2.88 0.352-3.888 0.736-1.072 0.416-2.032 1.040-2.832 1.856-0.816 0.8-1.44 1.76-1.856 2.832-0.443 1.152-0.711 2.485-0.736 3.877l-0 0.011c-0.070 1.458-0.109 3.167-0.109 4.885 0 0.6 0.005 1.199 0.014 1.797l-0.001-0.090c0 4.352 0 4.896 0.080 6.592 0.030 1.405 0.303 2.737 0.779 3.968l-0.027-0.080c0.4 1.072 1.040 2.032 1.856 2.832 0.8 0.816 1.76 1.44 2.832 1.856 1.008 0.384 2.176 0.656 3.872 0.736 1.712 0.080 2.24 0.096 6.592 0.096s4.896-0.016 6.608-0.096c1.397-0.026 2.724-0.294 3.952-0.763l-0.080 0.027c2.16-0.851 3.837-2.528 4.669-4.633l0.019-0.055c0.384-1.024 0.672-2.176 0.736-3.888 0.080-1.696 0.096-2.24 0.096-6.592 0-4.336 0-4.88-0.080-6.592zM29.088 22.48c-0.064 1.552-0.32 2.4-0.544 2.96-0.552 1.401-1.639 2.488-3.004 3.027l-0.036 0.013c-0.56 0.224-1.424 0.48-2.976 0.544-1.68 0.080-2.192 0.096-6.464 0.096-0.465 0.007-1.013 0.011-1.562 0.011-1.724 0-3.439-0.039-5.144-0.116l0.242 0.009c-1.568-0.064-2.4-0.32-2.96-0.544-0.722-0.271-1.337-0.68-1.839-1.199l-0.001-0.001c-0.518-0.5-0.926-1.108-1.189-1.79l-0.011-0.034c-0.336-0.884-0.535-1.905-0.544-2.972l-0-0.004c-0.068-1.463-0.107-3.179-0.107-4.903 0-0.549 0.004-1.097 0.012-1.643l-0.001 0.083c0-4.272 0.016-4.784 0.096-6.464 0.064-1.568 0.32-2.4 0.544-2.976 0.256-0.688 0.656-1.312 1.2-1.824 0.504-0.519 1.118-0.928 1.806-1.189l0.034-0.011c0.56-0.224 1.408-0.48 2.976-0.544 1.68-0.080 2.192-0.096 6.448-0.096 4.288 0 4.8 0 6.464 0.096 1.568 0.064 2.4 0.32 2.976 0.544 0.688 0.256 1.328 0.656 1.84 1.2 0.528 0.512 0.944 1.136 1.2 1.824 0.208 0.576 0.48 1.424 0.544 2.976 0.080 1.68 0.096 2.192 0.096 6.464s-0.016 4.768-0.096 6.464z"></path>
<path d="M16.064 7.776c-4.542 0-8.224 3.682-8.224 8.224s3.682 8.224 8.224 8.224v0c4.542 0 8.224-3.682 8.224-8.224s-3.682-8.224-8.224-8.224v0zM16.064 21.328c-2.943 0-5.328-2.385-5.328-5.328s2.385-5.328 5.328-5.328v0c2.943 0 5.328 2.385 5.328 5.328s-2.385 5.328-5.328 5.328v0zM26.528 7.456c0 1.060-0.86 1.92-1.92 1.92s-1.92-0.86-1.92-1.92v0c0-1.060 0.86-1.92 1.92-1.92s1.92 0.86 1.92 1.92v0z"></path>
</symbol>
<symbol id="linkedin-footer" viewBox="0 0 32 32">
<path fill="#fff" style="fill: var(--color5, #fff)" d="M32 32v-11.744c0-5.728-1.232-10.16-7.952-10.16-0.076-0.003-0.166-0.005-0.256-0.005-2.555 0-4.788 1.376-5.999 3.428l-0.018 0.032h-0.096v-2.912h-6.368v21.36h6.64v-10.576c0-2.784 0.528-5.488 3.968-5.488 3.408 0 3.456 3.184 3.456 5.664v10.4h6.624zM0.528 10.64h6.64v21.36h-6.64v-21.36zM3.84 0c-2.121 0-3.84 1.719-3.84 3.84v0c-0 0.005-0 0.010-0 0.016 0 2.127 1.715 3.854 3.838 3.872h0.002c2.128 0 3.84-1.76 3.84-3.888 0-2.121-1.719-3.84-3.84-3.84v0z"></path>
</symbol>
<symbol id="linkedin-team" viewBox="0 0 32 32">
<path d="M32 32v-11.744c0-5.728-1.232-10.16-7.952-10.16-0.076-0.003-0.166-0.005-0.256-0.005-2.555 0-4.788 1.376-5.999 3.428l-0.018 0.032h-0.096v-2.912h-6.368v21.36h6.64v-10.576c0-2.784 0.528-5.488 3.968-5.488 3.408 0 3.456 3.184 3.456 5.664v10.4h6.624zM0.528 10.64h6.64v21.36h-6.64v-21.36zM3.84 0c-2.121 0-3.84 1.719-3.84 3.84v0c-0 0.005-0 0.010-0 0.016 0 2.127 1.715 3.854 3.838 3.872h0.002c2.128 0 3.84-1.76 3.84-3.888 0-2.121-1.719-3.84-3.84-3.84v0z"></path>
</symbol>
<symbol id="smartphone" viewBox="0 0 20 32">
<path d="M17 0h-14c-1.654 0-3 1.346-3 3v26c0 1.654 1.346 3 3 3h14c1.654 0 3-1.346 3-3v-26c0-1.654-1.346-3-3-3zM3 2h14c0.552 0 1 0.448 1 1v21h-16v-21c0-0.552 0.448-1 1-1zM17 30h-14c-0.552 0-1-0.448-1-1v-3h16v3c0 0.552-0.448 1-1 1z"></path>
<path fill="#757575" style="fill: var(--color1, #757575)" d="M4.707 27.478c0.391 0.365 0.391 0.956 0 1.321s-1.024 0.365-1.414 0c-0.391-0.365-0.391-0.956 0-1.321s1.024-0.365 1.414 0z"></path>
</symbol>
<symbol id="twitter-footer" viewBox="0 0 32 32">
<path fill="#fff" style="fill: var(--color5, #fff)" d="M32 6.080c-1.184 0.528-2.464 0.864-3.776 1.040 1.36-0.816 2.4-2.080 2.88-3.632-1.28 0.752-2.672 1.28-4.16 1.6-1.202-1.298-2.915-2.107-4.817-2.107-3.623 0-6.56 2.937-6.56 6.56 0 0.538 0.065 1.060 0.187 1.56l-0.009-0.045c-5.462-0.281-10.265-2.883-13.477-6.83l-0.027-0.034c-0.558 0.949-0.887 2.089-0.887 3.307 0 2.26 1.134 4.255 2.865 5.446l0.022 0.014c-1.040 0-2.080-0.32-2.96-0.8v0.064c0 3.2 2.272 5.84 5.264 6.448-0.518 0.147-1.113 0.232-1.728 0.232-0.442 0-0.873-0.044-1.29-0.127l0.042 0.007c0.878 2.623 3.284 4.493 6.136 4.56l0.008 0c-2.221 1.763-5.066 2.828-8.159 2.828-0.547 0-1.087-0.033-1.617-0.098l0.064 0.006c2.826 1.846 6.286 2.944 10.003 2.944 0.022 0 0.043-0 0.065-0h-0.003c12.080 0 18.672-10 18.672-18.672 0-0.288 0-0.576-0.032-0.848 1.312-0.928 2.4-2.080 3.296-3.408z"></path>
</symbol>
<symbol id="twitter-team" viewBox="0 0 32 32">
<path d="M32 6.080c-1.184 0.528-2.464 0.864-3.776 1.040 1.36-0.816 2.4-2.080 2.88-3.632-1.28 0.752-2.672 1.28-4.16 1.6-1.202-1.298-2.915-2.107-4.817-2.107-3.623 0-6.56 2.937-6.56 6.56 0 0.538 0.065 1.060 0.187 1.56l-0.009-0.045c-5.462-0.281-10.265-2.883-13.477-6.83l-0.027-0.034c-0.558 0.949-0.887 2.089-0.887 3.307 0 2.26 1.134 4.255 2.865 5.446l0.022 0.014c-1.040 0-2.080-0.32-2.96-0.8v0.064c0 3.2 2.272 5.84 5.264 6.448-0.518 0.147-1.113 0.232-1.728 0.232-0.442 0-0.873-0.044-1.29-0.127l0.042 0.007c0.878 2.623 3.284 4.493 6.136 4.56l0.008 0c-2.221 1.763-5.066 2.828-8.159 2.828-0.547 0-1.087-0.033-1.617-0.098l0.064 0.006c2.826 1.846 6.286 2.944 10.003 2.944 0.022 0 0.043-0 0.065-0h-0.003c12.080 0 18.672-10 18.672-18.672 0-0.288 0-0.576-0.032-0.848 1.312-0.928 2.4-2.080 3.296-3.408z"></path>
</symbol>
<symbol id="close-modal" viewBox="0 0 32 32">
<path d="M32 3.2l-3.2-3.2-12.8 12.8-12.8-12.8-3.2 3.2 12.8 12.8-12.8 12.8 3.2 3.2 12.8-12.8 12.8 12.8 3.2-3.2-12.8-12.8 12.8-12.8z"></path>
</symbol>
<symbol id="icon-send" viewBox="0 0 32 32">
<path fill="#fff" style="fill: var(--color1, #fff)" d="M32 0l-32 18 10.227 3.787 15.773-14.787-12 16.187v8.813l5.733-6.693 7.267 2.693 5-28z"></path>
</symbol>
<symbol id="icon-email-modal" viewBox="0 0 20 20">
<path d="M16.667 3.333h-13.333c-0.922 0-1.667 0.744-1.667 1.667v10c0 0.911 0.744 1.667 1.667 1.667h13.333c0.911 0 1.667-0.756 1.667-1.667v-10c0-0.922-0.756-1.667-1.667-1.667zM16.333 6.878l-5.889 3.678c-0.126 0.079-0.28 0.126-0.444 0.126s-0.318-0.047-0.448-0.128l0.004 0.002-5.889-3.667c-0.227-0.122-0.379-0.358-0.379-0.629 0-0.393 0.318-0.711 0.711-0.711 0.16 0 0.307 0.053 0.426 0.141l-0.002-0.001 5.578 3.478 5.589-3.489c0.121-0.097 0.275-0.156 0.444-0.156 0.393 0 0.711 0.318 0.711 0.711 0 0.284-0.166 0.529-0.406 0.643l-0.004 0.002z"></path>
</symbol>
<symbol id="icon-person-modal" viewBox="0 0 20 20">
<path d="M10 10c1.841 0 3.333-1.492 3.333-3.333s-1.492-3.333-3.333-3.333v0c-1.841 0-3.333 1.492-3.333 3.333s1.492 3.333 3.333 3.333v0zM10 11.667c-2.222 0-6.667 1.111-6.667 3.333v0.833c0 0.456 0.378 0.833 0.833 0.833h11.667c0.456 0 0.833-0.378 0.833-0.833v-0.833c0-2.222-4.444-3.333-6.667-3.333z"></path>
</symbol>
<symbol id="icon-phone-modal" viewBox="0 0 20 20">
<path d="M15.556 12.356l-2.044-0.222c-0.489-0.067-0.978 0.111-1.322 0.444l-1.478 1.489c-2.294-1.184-4.116-3.006-5.268-5.233l-0.032-0.067 1.489-1.489c0.344-0.344 0.511-0.833 0.456-1.322l-0.222-2.022c-0.098-0.805-0.777-1.422-1.6-1.422-0.004 0-0.008 0-0.012 0h-1.388c-0.911 0-1.667 0.756-1.611 1.667 0.447 6.87 5.908 12.331 12.737 12.776l0.041 0.002c0.911 0.056 1.667-0.7 1.667-1.611v-1.389c0-0.822-0.6-1.5-1.411-1.6z"></path>
</symbol>
<symbol id="icon-icon-check" viewBox="0 0 34 32">
<path fill="#fff" style="fill: var(--color1, #fff); stroke: var(--color1, #fff)" stroke="#fff" stroke-linejoin="miter" stroke-linecap="butt" stroke-miterlimit="4" stroke-width="0.4267" d="M8.448 16.533l-0.149-0.128-0.149 0.128-1.899 1.792-0.171 0.149 0.171 0.171 7.616 7.253 0.128-0.149 16.171-15.424-0.149-0.149-1.877-1.792-0.149-0.149-0.149 0.149-13.973 13.312-5.419-5.163z"></path>
</symbol>
</defs>
</svg>
