<svg width="106" height="60" fill="none" xmlns="http://www.w3.org/2000/svg"><path d="M24.15 21.1c-2.4 0-4.35 1.73-4.35 3.86 0 2.14 1.95 3.86 4.34 3.86 2.4 0 4.35-1.72 4.35-3.86 0-2.13-1.95-3.86-4.34-3.86ZM56.2 19.87c-.01-2.96-1.34-5.8-3.7-7.9a13.43 13.43 0 0 0-8.87-3.27c-3.33 0-6.53 1.18-8.88 3.28a10.6 10.6 0 0 0-3.7 7.89v16.32S56.2 33.7 56.2 19.87ZM11 41.55c0 2.06.93 4.03 2.57 5.49a9.35 9.35 0 0 0 6.17 2.28c2.32 0 4.54-.82 6.18-2.28a7.38 7.38 0 0 0 2.57-5.49V30.2S11 31.93 11 41.55Zm8.74 2.03c-.45 0-.9-.11-1.27-.34a2.1 2.1 0 0 1-.84-.91 1.83 1.83 0 0 1-.13-1.18c.09-.4.3-.75.63-1.04a2.4 2.4 0 0 1 1.17-.56c.44-.07.9-.03 1.32.12.42.15.78.41 1.03.75a1.88 1.88 0 0 1-.28 2.57c-.22.2-.47.34-.75.45-.28.1-.57.15-.88.15ZM35.73 39.94v4.27h-.88v-4.27h.88Zm1.7 1.82v.69h-1.94v-.69h1.94Zm.2-1.82v.69H35.5v-.69h2.14Zm4.02 2.03v.2c0 .33-.05.62-.13.88-.1.26-.22.48-.38.66-.16.18-.35.32-.57.41-.22.1-.47.15-.74.15-.26 0-.5-.05-.73-.15-.22-.1-.41-.23-.57-.41-.17-.18-.3-.4-.38-.66a2.7 2.7 0 0 1-.13-.87v-.2c0-.33.04-.62.13-.88s.2-.48.37-.66c.16-.18.35-.32.57-.41.23-.1.47-.15.74-.15s.51.05.73.15c.23.1.42.23.58.41.16.18.29.4.37.66.1.26.14.55.14.87Zm-.89.2v-.2c0-.23-.02-.43-.06-.6a1.3 1.3 0 0 0-.18-.43.78.78 0 0 0-.7-.36.8.8 0 0 0-.69.35c-.06.12-.12.27-.17.44a2.6 2.6 0 0 0-.06.6v.2c0 .23.02.43.06.6.05.18.1.32.19.44.08.12.17.2.29.27.11.06.25.09.4.09.14 0 .27-.03.39-.1a.79.79 0 0 0 .29-.26c.08-.12.14-.26.18-.44.04-.17.06-.37.06-.6Zm3.74.92a.57.57 0 0 0-.03-.2.39.39 0 0 0-.13-.17 1.1 1.1 0 0 0-.25-.16 3.6 3.6 0 0 0-.43-.16l-.55-.2a2.26 2.26 0 0 1-.45-.28c-.13-.1-.24-.23-.31-.37a1 1 0 0 1-.12-.48 1 1 0 0 1 .12-.48c.08-.15.19-.28.33-.38.14-.1.3-.19.5-.24a2.25 2.25 0 0 1 1.46.08c.23.12.41.27.54.47.13.2.2.42.2.68h-.88a.66.66 0 0 0-.07-.33.54.54 0 0 0-.24-.23.84.84 0 0 0-.4-.08.9.9 0 0 0-.37.07.5.5 0 0 0-.23.18.45.45 0 0 0-.08.26c0 .07.02.14.06.2.03.06.09.11.16.16l.27.15.36.13c.23.07.44.15.61.24.18.08.33.18.45.3a1.1 1.1 0 0 1 .36.83c0 .19-.04.36-.1.5-.08.15-.18.27-.32.38-.14.1-.3.17-.5.23a2.37 2.37 0 0 1-1.81-.26 1.25 1.25 0 0 1-.55-1.06h.88c0 .13.02.25.07.34.04.09.1.16.17.22s.16.1.27.12c.1.03.22.04.34.04.16 0 .28-.02.38-.06a.46.46 0 0 0 .3-.44Zm3.39-3.15v4.27H47v-4.27h.88Zm1.3 0v.69h-3.47v-.69h3.48Zm3.37 3.58v.69H50.3v-.69h2.27Zm-1.98-3.58v4.27h-.88v-4.27h.88Zm1.69 1.74v.67h-1.98v-.67h1.98Zm.29-1.74v.69h-2.27v-.69h2.27Zm.51 0h1.6c.32 0 .6.05.84.15.23.1.41.24.54.43.13.2.2.43.2.7 0 .24-.05.43-.13.6-.07.16-.18.3-.32.4-.14.11-.3.2-.5.26l-.27.15h-1.38v-.69h1.02a.8.8 0 0 0 .38-.08c.1-.05.18-.13.23-.23a.7.7 0 0 0 .08-.34.77.77 0 0 0-.07-.35.51.51 0 0 0-.24-.23.85.85 0 0 0-.39-.08h-.7v3.58h-.89v-4.27Zm2.39 4.27-.97-1.9.92-.01.99 1.87v.04h-.94Zm4.61-1.52H59V42h1.08c.17 0 .3-.03.41-.08.1-.06.19-.14.23-.24.05-.1.08-.2.08-.33a.86.86 0 0 0-.08-.36.6.6 0 0 0-.23-.26.76.76 0 0 0-.4-.1h-.79v3.58h-.88v-4.27h1.66c.34 0 .62.06.86.18a1.3 1.3 0 0 1 .74 1.22c0 .28-.06.52-.19.72-.12.2-.3.35-.55.46-.24.11-.52.17-.86.17Zm5.07.83v.69h-2.27v-.69h2.27Zm-1.98-3.58v4.27h-.88v-4.27h.88Zm1.69 1.74v.67h-1.98v-.67h1.98Zm.29-1.74v.69h-2.27v-.69h2.27Zm2.48 0v4.27h-.88v-4.27h.88Zm1.31 0v.69h-3.48v-.69h3.48Zm3.37 3.58v.69h-2.27v-.69h2.27Zm-1.99-3.58v4.27h-.88v-4.27h.88ZM72 41.68v.67h-1.97v-.67H72Zm.3-1.74v.69h-2.27v-.69h2.26Zm.5 0h1.6c.33 0 .6.05.84.15.24.1.42.24.54.43.13.2.2.43.2.7 0 .24-.04.43-.12.6-.08.16-.19.3-.33.4-.14.11-.3.2-.49.26l-.27.15h-1.39v-.69h1.03a.8.8 0 0 0 .38-.08c.1-.05.18-.13.23-.23a.7.7 0 0 0 .08-.34.77.77 0 0 0-.08-.35.51.51 0 0 0-.23-.23.85.85 0 0 0-.4-.08h-.7v3.58h-.88v-4.27Zm2.4 4.27-.98-1.9.93-.01.98 1.87v.04h-.94Zm3.67-1.12a.57.57 0 0 0-.03-.2.39.39 0 0 0-.13-.17 1.1 1.1 0 0 0-.25-.16 3.6 3.6 0 0 0-.43-.16l-.55-.2a2.26 2.26 0 0 1-.45-.28c-.13-.1-.24-.23-.31-.37a1 1 0 0 1-.11-.48 1 1 0 0 1 .11-.48c.08-.15.19-.28.33-.38.14-.1.3-.19.5-.24a2.25 2.25 0 0 1 1.46.08c.23.12.41.27.54.47.13.2.2.42.2.68h-.87a.66.66 0 0 0-.08-.33.54.54 0 0 0-.24-.23.84.84 0 0 0-.39-.08.9.9 0 0 0-.38.07.5.5 0 0 0-.23.18.45.45 0 0 0-.08.26c0 .07.02.14.06.2.03.06.09.11.16.16l.27.15.36.13c.24.07.44.15.62.24.17.08.32.18.44.3a1.1 1.1 0 0 1 .36.83c0 .19-.03.36-.1.5-.08.15-.18.27-.32.38-.14.1-.3.17-.49.23a2.37 2.37 0 0 1-1.82-.26 1.25 1.25 0 0 1-.55-1.06h.89c0 .13.02.25.06.34.04.09.1.16.17.22.08.06.17.1.27.12.1.03.22.04.34.04.16 0 .28-.02.38-.06a.46.46 0 0 0 .3-.44Z" fill="#AFB1B8"/></svg>